# xmcd
#
# Track frame offsets:
#	150
#	18582
#	34907
#	48467
#	63400
#	81572
#	96780
#	113817
#	131112
#	149055
#	171605
#	190037
#	206362
#	219925
#	234855
#	253027
#	268237
#	285272
#	302567
#	320510
#
# Disc length: 4574 seconds
#
# Revision: 2
# Processed by: cddbd v1.5.2PL0 Copyright (c) Steve Scherf et al.
# Submitted via: audiograbber 1.83.01
#
DISCID=2d11dc14
DTITLE=Top Hits Monthly Country - THC0301 
DYEAR=2003
DGENRE=Karaoke
TTITLE0=Tim McGraw  - Red Rag Top (Vocals)
TTITLE1=Gary Allan  - Man To Man (vocals)
TTITLE2=Brad Martin  - Rub Me The Right Way (vocals)
TTITLE3=Trace Adkins  - Chrome (vocals)
TTITLE4=Andy Griggs and Martina Mcbride   - Practice Life (vocals)
TTITLE5=Mark Wills  - Nineteen Something  (vocals)
TTITLE6=Neal Mccoy  - The Luckiest Man In The World (vocals)
TTITLE7=Jameson Clark  - You Da Man (vocals)
TTITLE8=Anthony Smith  - John J. Blanchard (vocals)
TTITLE9=Kid Rock and Sheryl Crow  - Picture (vocals)
TTITLE10=Tim McGraw - Red Rag Top
TTITLE11=Gary Allan - Man To Man
TTITLE12=Brad Martin - Rub Me The Right Way
TTITLE13=Trace Adkins - Chrome
TTITLE14=Andy Griggs and Martina Mcbride - Practice Life
TTITLE15=Mark Wills - Nineteen Something
TTITLE16=Neal Mccoy - The Luckiest Man In The World
TTITLE17=Jameson Clark - You Da Man
TTITLE18=Anthony Smith - John J. Blanchard
TTITLE19=Kid Rock and Sheryl Crow - Picture
EXTD=fixed vocal listings
EXTT0=
EXTT1=
EXTT2=
EXTT3=
EXTT4=
EXTT5=
EXTT6=
EXTT7=
EXTT8=
EXTT9=
EXTT10=
EXTT11=
EXTT12=
EXTT13=
EXTT14=
EXTT15=
EXTT16=
EXTT17=
EXTT18=
EXTT19=
PLAYORDER=
